<svg version="1.0" xmlns="http://www.w3.org/2000/svg" width="576" height="576" viewBox="0 0 432 432"><path d="M197.9.5c-.2.1-3.1.6-6.4.9-21 2-46.5 9.4-68 19.7C102 31.4 83.8 44.2 66 61.7c-18.9 18.6-31.4 35.8-43.1 59.8C12.4 143.2 4.7 169 2.3 191c-1.5 14.2-.9 46.9 1.1 57.5.2 1.1.7 4 1.1 6.5 3.3 21.3 14.2 50.1 26.9 71.5 17.5 29.4 44.7 57 73.6 74.5 25.8 15.6 57.5 26.5 86.5 29.7 8.1.9 40.4 1 48.6.1 14.3-1.5 34.3-6.4 49.4-12 52.3-19.3 95.7-58.7 119.7-108.5 8.3-17.4 16.1-41.5 18.4-57.1.3-2 .7-4.4.9-5.2 1.1-4.1 2-18 1.9-31.5 0-20.1-1.1-30.2-5-48.3-15.3-69.3-65.7-127.9-132.5-153.8-15.4-6-26-8.7-49.9-12.9-3.7-.7-44.6-1.6-45.1-1zm97.6 111c6.5 1.1 14 4.1 18.8 7.3 13.9 9.6 19.6 24.9 20 53.3l.2 14.4-17 .3-17 .2-.1-14.2c0-22-1.7-28.3-8.5-32.3-5.3-3.1-17.4-2.8-22.3.5-4.4 3-7.2 8.5-8.4 16.2-.5 3.2-.8 31.3-.7 62.5.1 55.9.2 56.9 2.3 62.4 2.2 5.6 4.7 8.6 9.1 10.9 3.2 1.6 15 1.7 18.1 0 8.4-4.3 10.3-10.3 10.4-33l.2-16.5 16.4-.3c10.7-.2 16.6.1 17 .8 1 1.6.3 26.5-.9 33.5-1.9 11-2.2 11.9-6.1 20.1-8.2 16.9-22.5 24.5-46.5 24.6-22 .1-37.5-7.2-47-22.2-2.5-4-6.1-12.8-7.1-17.2-.2-1.3-1-4.8-1.6-7.8-1.3-6.4-1.7-103.4-.5-114 3-24.9 13.2-40.1 31.7-47.1 2.9-1.1 7.7-2.2 10.8-2.5 3.1-.4 5.8-.8 6-.9.6-.5 18.6.3 22.7 1zm-136.6 4.9c11.6 1.2 22.6 6.9 32.1 16.5 11.6 11.7 16.7 26.1 15.7 44.2-1.6 27.8-12.9 43-36.3 48.5-4.5 1.1-11.9 1.7-21.1 1.8-7.8 0-14.5.4-14.9.8-.3.4-.7 20.6-.7 44.8 0 24.2-.3 44.1-.6 44.1-.3.1-8.6.2-18.4.3l-17.7.1-.1-2.5c0-2.6 0-197 .1-198.2 0-.4 1.2-.8 2.8-1 4.2-.5 53.7 0 59.1.6z"/><path d="M134.3 141.3c-.5.8-.8 45.8-.4 58.9l.1 2.7 12.4-.3c19.6-.5 23.9-3.5 27.2-19.1.7-3.1.6-21.1-.1-25.2-1-5.6-4-11.8-6.7-13.5-1.3-.8-3.9-2-5.9-2.7-4.6-1.5-25.8-2.1-26.6-.8z"/></svg>