<svg xmlns="http://www.w3.org/2000/svg" width="45" height="40"><path fill-rule="evenodd" fill="#0090E3" d="M42.56 5.835c.559 0 1.028.229 1.409.686.381.457.496.965.343 1.524l-3.276 15.848c-.102.407-.318.75-.648 1.029-.33.28-.698.419-1.105.419H13.987l.914 4.877h22.554c.457 0 .851.127 1.181.381.33.254.546.584.647.99.966.965 1.448 2.134 1.448 3.505 0 1.372-.47 2.527-1.41 3.467-.939.94-2.095 1.41-3.466 1.41-1.372 0-2.528-.47-3.467-1.41-.94-.94-1.41-2.095-1.41-3.467 0-.863.229-1.676.686-2.438H20.539c.458.762.686 1.575.686 2.438 0 1.372-.47 2.527-1.41 3.467-.939.94-2.095 1.41-3.466 1.41-1.372 0-2.528-.47-3.467-1.41-.94-.94-1.41-2.07-1.41-3.391 0-1.32.432-2.438 1.295-3.352L7.434 3.397h-6.02a.878.878 0 0 1-.647-.267.88.88 0 0 1-.267-.647v-.61c0-.254.089-.47.267-.648a.881.881 0 0 1 .647-.266h6.477c.457 0 .851.139 1.181.419.33.279.546.647.648 1.105l.609 3.352H42.56zM18.787 35.094c0-.66-.241-1.232-.724-1.714-.483-.483-1.054-.724-1.714-.724-.661 0-1.232.241-1.715.724-.482.482-.724 1.054-.724 1.714 0 .661.242 1.232.724 1.715.483.482 1.054.723 1.715.723.66 0 1.231-.241 1.714-.723.483-.483.724-1.054.724-1.715zm17.068 2.438c.66 0 1.231-.241 1.714-.723.483-.483.724-1.054.724-1.715 0-.66-.241-1.232-.724-1.714-.483-.483-1.054-.724-1.714-.724-.661 0-1.232.241-1.715.724-.482.482-.724 1.054-.724 1.714 0 .661.242 1.232.724 1.715.483.482 1.054.723 1.715.723zm2.895-14.629l3.048-14.63H10.786l2.743 14.63H38.75z"/></svg>